<?xml version="1.0" encoding="utf-8"?>
<!-- Generator: Adobe Illustrator 22.0.1, SVG Export Plug-In . SVG Version: 6.00 Build 0)  -->
<svg version="1.1" id="Layer_1" xmlns="http://www.w3.org/2000/svg" xmlns:xlink="http://www.w3.org/1999/xlink" x="0px" y="0px"
	 viewBox="0 0 94.5 47.4" style="enable-background:new 0 0 94.5 47.4;" xml:space="preserve">
<style type="text/css">
	.st0{fill:#010101;}
</style>
<path class="st0" d="M37.6,47.4h47.8c5,0,9.1-4.1,9.1-9.1V9.1c0-5-4.1-9.1-9.1-9.1H37.6c-5,0-9.1,4.1-9.1,9.1v29.2
	C28.6,43.3,32.6,47.4,37.6,47.4z M31,9.1c0-3.7,3-6.6,6.6-6.6h47.8c3.7,0,6.6,3,6.6,6.6v29.2c0,3.7-3,6.6-6.6,6.6h-27H37.6
	c-3.7,0-6.6-3-6.6-6.6V9.1z M38.2,36.3l15.3-13.5L38.3,11c-0.5-0.4-0.6-1.2-0.2-1.7c0.4-0.5,1.2-0.6,1.7-0.2L61.6,26L83.3,9
	c0.5-0.4,1.3-0.3,1.7,0.2c0.4,0.5,0.3,1.3-0.2,1.7l-15,11.8L85,36.3c0.5,0.5,0.5,1.2,0.1,1.7c-0.2,0.3-0.6,0.4-0.9,0.4
	s-0.6-0.1-0.8-0.3L67.8,24.2l-5.5,4.3c-0.2,0.2-0.5,0.3-0.7,0.3s-0.5-0.1-0.7-0.3l-5.3-4.1L39.8,38.1c-0.2,0.2-0.5,0.3-0.8,0.3
	s-0.7-0.1-0.9-0.4C37.7,37.5,37.7,36.7,38.2,36.3z M23.7,23.7c0,0.7-0.5,1.2-1.2,1.2H8.4c-0.7,0-1.2-0.5-1.2-1.2s0.5-1.2,1.2-1.2
	h14.1C23.1,22.5,23.7,23,23.7,23.7z M0,14.3c0-0.7,0.5-1.2,1.2-1.2h21.2c0.7,0,1.2,0.5,1.2,1.2s-0.5,1.2-1.2,1.2H1.3
	C0.6,15.6,0,15,0,14.3z M23.7,33.1c0,0.7-0.5,1.2-1.2,1.2h-9.3c-0.7,0-1.2-0.5-1.2-1.2c0-0.7,0.5-1.2,1.2-1.2h9.3
	C23.1,31.8,23.7,32.4,23.7,33.1z"/>
</svg>
