<svg id="Layer_1" data-name="Layer 1" xmlns="http://www.w3.org/2000/svg" viewBox="0 0 512 512"><title>Instagram_simple_icon</title><path d="M256,71.54c60.08,0,67.19.23,90.92,1.31,21.94,1,33.85,4.67,41.78,7.75a74.5,74.5,0,0,1,42.7,42.7c3.08,7.93,6.75,19.84,7.75,41.78,1.08,23.73,1.31,30.84,1.31,90.92s-.23,67.2-1.31,90.92c-1,21.94-4.67,33.85-7.75,41.78a74.52,74.52,0,0,1-42.7,42.7c-7.93,3.09-19.84,6.75-41.78,7.75-23.72,1.08-30.84,1.31-90.92,1.31s-67.2-.23-90.92-1.31c-21.94-1-33.85-4.67-41.78-7.75a74.5,74.5,0,0,1-42.7-42.7c-3.08-7.93-6.75-19.84-7.75-41.78-1.08-23.72-1.31-30.84-1.31-90.92s.23-67.19,1.31-90.92c1-21.94,4.67-33.85,7.75-41.78a74.5,74.5,0,0,1,42.7-42.7c7.93-3.08,19.84-6.75,41.78-7.75,23.73-1.08,30.84-1.31,90.92-1.31M256,31c-61.1,0-68.77.26-92.76,1.36s-40.31,4.89-54.62,10.45a110.29,110.29,0,0,0-39.85,26,110.12,110.12,0,0,0-26,39.85c-5.56,14.31-9.36,30.66-10.45,54.61S31,194.89,31,256s.26,68.77,1.36,92.77,4.9,40.3,10.46,54.61a115.1,115.1,0,0,0,65.8,65.81c14.31,5.56,30.67,9.36,54.62,10.45S194.9,481,256,481s68.77-.26,92.77-1.36,40.3-4.89,54.62-10.45a115.08,115.08,0,0,0,65.8-65.81c5.56-14.31,9.36-30.67,10.46-54.61S481,317.11,481,256s-.26-68.77-1.35-92.77-4.9-40.3-10.46-54.61a115.07,115.07,0,0,0-65.81-65.81c-14.31-5.56-30.66-9.36-54.61-10.45S317.11,31,256,31Z"/><path d="M256,140.46A115.54,115.54,0,1,0,371.54,256h0A115.54,115.54,0,0,0,256,140.46ZM256,331a75,75,0,1,1,75-75A75,75,0,0,1,256,331Z"/><circle cx="376.1" cy="135.9" r="27"/></svg>
