<?xml version="1.0" encoding="UTF-8" standalone="no"?>
<!DOCTYPE svg PUBLIC "-//W3C//DTD SVG 1.1//EN" "http://www.w3.org/Graphics/SVG/1.1/DTD/svg11.dtd">
<svg width="100%" height="100%" viewBox="0 0 100 100" version="1.1" xmlns="http://www.w3.org/2000/svg" xmlns:xlink="http://www.w3.org/1999/xlink" xml:space="preserve" xmlns:serif="http://www.serif.com/" style="fill-rule:evenodd;clip-rule:evenodd;stroke-linejoin:round;stroke-miterlimit:1.41421;">
    <path d="M41.8,70.1L82.3,70.1C86.5,70.1 90,66.6 90,62.4L90,37.6C90,33.4 86.5,29.9 82.3,29.9L41.8,29.9C37.6,29.9 34.1,33.4 34.1,37.6L34.1,62.3C34.2,66.6 37.6,70.1 41.8,70.1ZM36.2,37.6C36.2,34.5 38.7,32 41.8,32L82.3,32C85.4,32 87.9,34.5 87.9,37.6L87.9,62.3C87.9,65.4 85.4,67.9 82.3,67.9L59.4,67.9L41.8,67.9C38.7,67.9 36.2,65.4 36.2,62.3C36.2,62.4 36.2,37.6 36.2,37.6ZM42.3,60.7L55.3,49.3L42.4,39.3C42,39 41.9,38.3 42.2,37.9C42.5,37.5 43.2,37.4 43.6,37.7L62.1,52L80.5,37.6C80.9,37.3 81.6,37.3 81.9,37.8C82.2,38.2 82.2,38.9 81.7,39.2L69,49.2L82,60.7C82.4,61.1 82.4,61.7 82.1,62.1C81.9,62.4 81.6,62.4 81.3,62.4C81,62.4 80.8,62.3 80.6,62.1L67.4,50.4L62.7,54C62.5,54.2 62.3,54.3 62.1,54.3C61.9,54.3 61.7,54.2 61.5,54L57,50.5L43.7,62.2C43.5,62.4 43.3,62.5 43,62.5C42.7,62.5 42.4,62.4 42.2,62.2C41.9,61.7 41.9,61 42.3,60.7ZM30.1,50C30.1,50.6 29.7,51 29.1,51L17.1,51C16.5,51 16.1,50.6 16.1,50C16.1,49.4 16.5,49 17.1,49L29,49C29.6,49 30.1,49.4 30.1,50ZM10,42C10,41.4 10.4,41 11,41L29,41C29.6,41 30,41.4 30,42C30,42.6 29.6,43 29,43L11.1,43C10.5,43.1 10,42.6 10,42ZM30.1,58C30.1,58.6 29.7,59 29.1,59L21.2,59C20.6,59 20.2,58.6 20.2,58C20.2,57.4 20.6,57 21.2,57L29,57C29.6,56.9 30.1,57.4 30.1,58Z" style="fill:rgb(36,133,214);fill-rule:nonzero;"/>
</svg>
