<?xml version="1.0" encoding="UTF-8" standalone="no"?>
<!DOCTYPE svg PUBLIC "-//W3C//DTD SVG 1.1//EN" "http://www.w3.org/Graphics/SVG/1.1/DTD/svg11.dtd">
<svg width="100%" height="100%" viewBox="0 0 100 48" version="1.1" xmlns="http://www.w3.org/2000/svg" xmlns:xlink="http://www.w3.org/1999/xlink" xml:space="preserve" xmlns:serif="http://www.serif.com/" style="fill-rule:evenodd;clip-rule:evenodd;stroke-linejoin:round;stroke-miterlimit:1.41421;">
    <path d="M40.3,47.4L88.1,47.4C93.1,47.4 97.2,43.3 97.2,38.3L97.2,9.1C97.2,4.1 93.1,0 88.1,0L40.3,0C35.3,0 31.2,4.1 31.2,9.1L31.2,38.3C31.4,43.3 35.3,47.4 40.3,47.4ZM33.8,9.1C33.8,5.4 36.8,2.5 40.4,2.5L88.2,2.5C91.9,2.5 94.8,5.5 94.8,9.1L94.8,38.3C94.8,42 91.8,44.9 88.2,44.9L61.2,44.9L40.3,44.9C36.6,44.9 33.7,41.9 33.7,38.3C33.8,38.3 33.8,9.1 33.8,9.1ZM41,36.3L56.3,22.8L41,11C40.5,10.6 40.4,9.8 40.8,9.3C41.2,8.8 42,8.7 42.5,9.1L64.3,26L86.1,9C86.6,8.6 87.4,8.7 87.8,9.2C88.2,9.7 88.1,10.5 87.6,10.9L72.6,22.7L87.8,36.3C88.3,36.8 88.3,37.5 87.9,38C87.7,38.3 87.3,38.4 87,38.4C86.7,38.4 86.4,38.3 86.2,38.1L70.6,24.2L65.1,28.5C64.9,28.7 64.6,28.8 64.4,28.8C64.2,28.8 63.9,28.7 63.7,28.5L58.4,24.4L42.5,38.1C42.3,38.3 42,38.4 41.7,38.4C41.4,38.4 41,38.3 40.8,38C40.5,37.5 40.5,36.7 41,36.3ZM26.5,23.7C26.5,24.4 26,24.9 25.3,24.9L11.1,24.9C10.4,24.9 9.9,24.4 9.9,23.7C9.9,23 10.4,22.5 11.1,22.5L25.2,22.5C25.9,22.5 26.5,23 26.5,23.7ZM2.8,14.3C2.8,13.6 3.3,13.1 4,13.1L25.2,13.1C25.9,13.1 26.4,13.6 26.4,14.3C26.4,15 25.9,15.5 25.2,15.5L4.1,15.5C3.3,15.6 2.8,15 2.8,14.3ZM26.5,33.1C26.5,33.8 26,34.3 25.3,34.3L16,34.3C15.3,34.3 14.8,33.8 14.8,33.1C14.8,32.4 15.3,31.9 16,31.9L25.3,31.9C25.9,31.8 26.5,32.4 26.5,33.1Z" style="fill:rgb(234,234,234);fill-rule:nonzero;"/>
</svg>
