<?xml version="1.0" encoding="utf-8"?>
<!-- Generator: Adobe Illustrator 22.0.1, SVG Export Plug-In . SVG Version: 6.00 Build 0)  -->
<svg version="1.1" id="Layer_1" xmlns="http://www.w3.org/2000/svg" xmlns:xlink="http://www.w3.org/1999/xlink" x="0px" y="0px"
	 viewBox="0 0 512 512" style="enable-background:new 0 0 512 512;" xml:space="preserve">
<path d="M256,71.5c60.1,0,67.2,0.2,90.9,1.3c21.9,1,33.8,4.7,41.8,7.7c9.8,3.6,18.6,9.4,25.9,16.8c7.5,7.3,13.2,16.1,16.8,25.9
	c3.1,7.9,6.7,19.8,7.7,41.8c1.1,23.7,1.3,30.8,1.3,90.9s-0.2,67.2-1.3,90.9c-1,21.9-4.7,33.8-7.7,41.8
	c-7.6,19.6-23.1,35.1-42.7,42.7c-7.9,3.1-19.8,6.7-41.8,7.7c-23.7,1.1-30.8,1.3-90.9,1.3s-67.2-0.2-90.9-1.3
	c-21.9-1-33.8-4.7-41.8-7.7c-9.8-3.6-18.6-9.4-25.9-16.8c-7.5-7.3-13.2-16.1-16.8-25.9c-3.1-7.9-6.7-19.8-7.7-41.8
	c-1.1-23.7-1.3-30.8-1.3-90.9s0.2-67.2,1.3-90.9c1-21.9,4.7-33.8,7.7-41.8c3.6-9.8,9.4-18.6,16.8-25.9c7.3-7.5,16.1-13.2,25.9-16.8
	c7.9-3.1,19.8-6.7,41.8-7.7C188.8,71.8,195.9,71.5,256,71.5 M256,31c-61.1,0-68.8,0.3-92.8,1.4c-23.9,1.1-40.3,4.9-54.6,10.5
	c-15,5.6-28.6,14.5-39.9,26c-11.4,11.2-20.3,24.8-26,39.9c-5.6,14.3-9.4,30.7-10.4,54.6c-1.1,24-1.4,31.7-1.4,92.8
	s0.3,68.8,1.4,92.8c1.1,23.9,4.9,40.3,10.5,54.6c5.6,15,14.5,28.6,26,39.9c11.2,11.4,24.8,20.3,39.9,26c14.3,5.6,30.7,9.4,54.6,10.5
	c24,1.1,31.7,1.4,92.8,1.4s68.8-0.3,92.8-1.4c23.9-1.1,40.3-4.9,54.6-10.5c30.2-11.7,54.1-35.6,65.8-65.8
	c5.6-14.3,9.4-30.7,10.5-54.6c1.1-24,1.4-31.7,1.4-92.8s-0.3-68.8-1.4-92.8c-1.1-23.9-4.9-40.3-10.5-54.6c-5.6-15-14.5-28.6-26-39.9
	c-11.2-11.4-24.8-20.3-39.9-26c-14.3-5.6-30.7-9.4-54.6-10.4C324.8,31.3,317.1,31,256,31L256,31L256,31z"/>
<path d="M256,140.5c-63.8,0-115.5,51.7-115.5,115.5S192.2,371.5,256,371.5S371.5,319.8,371.5,256l0,0
	C371.5,192.2,319.8,140.5,256,140.5z M256,331c-41.4,0-75-33.6-75-75s33.6-75,75-75c41.4,0,75,33.6,75,75
	C331,297.4,297.4,331,256,331z"/>
<circle cx="376.1" cy="135.9" r="27"/>
</svg>
