<?xml version="1.0" encoding="utf-8"?>
<!-- Generator: Adobe Illustrator 22.0.1, SVG Export Plug-In . SVG Version: 6.00 Build 0)  -->
<svg version="1.1" id="Layer_1" xmlns="http://www.w3.org/2000/svg" xmlns:xlink="http://www.w3.org/1999/xlink" x="0px" y="0px"
	 viewBox="0 0 981.1 381.9" style="enable-background:new 0 0 981.1 381.9;" xml:space="preserve">
<style type="text/css">
	.st0{fill:#333333;}
</style>
<g>
	<path class="st0" d="M80.6,284.6h-47V163.5l-14.9-2.7v-44.6h61.9V284.6z M30.8,71.6c0-13.6,10-24.3,22.7-24.3s22.7,10.7,22.7,24.3
		s-10,24.3-22.7,24.3S30.8,85.2,30.8,71.6z"/>
	<path class="st0" d="M271.3,184.4v100.2H224v-76.2c0-37-10.6-48.3-29.2-48.3c-19,0-35.8,13.3-37,42.3v82.2h-47V116.2H155l2.8,22
		c15.6-14.6,34.5-25.3,56.3-25.3C253,112.9,271.3,139.5,271.3,184.4z"/>
	<path class="st0" d="M354.7,116.2h39.8v47.3h-39.8v121.2h-47V163.5h-18.4v-47.3h18.4v-4.3c0-54.3,30.2-66.9,52.9-66.9
		c15.6,0,28,5.7,34.2,10.7v41.6c-2.5-1.3-10.9-5-17.4-5C359.4,92.2,355,101.5,354.7,116.2z"/>
	<path class="st0" d="M403.6,200.4c0-48.3,34.5-87.6,85.3-87.6c50.4,0,84.6,39.3,84.6,87.6c0,48.3-34.2,87.6-84.6,87.6
		C438.1,288,403.6,248.7,403.6,200.4z M526.2,200.4c0-21.6-14.6-40.3-37.3-40.3c-23,0-38.3,18.6-38.3,40.3s15.2,39.9,38.3,39.9
		C511.6,240.4,526.2,222.1,526.2,200.4z"/>
	<path class="st0" d="M692.4,119.8l-6.2,44.3c-3.4-2-10-4-15.2-4c-17.7,0-29.3,17.6-29.3,56.6v67.9h-47V116.2h44.2l2.2,16
		c9.6-11.7,20.8-19.3,33-19.3C682.1,112.9,688.6,116.2,692.4,119.8z"/>
	<path class="st0" d="M959.3,178.1v106.5h-47v-88.6c0-21.3-7.8-36-23-36c-19.3,0-30.5,23.3-30.8,57.6v66.9h-47.3v-88.6
		c0-21.3-7.5-36-22.7-36c-19.6,0-30.5,23.3-31.1,57.6v66.9h-47V116.2h44.2l2.5,20c13.7-14,30.5-23.3,50.4-23.3
		c21.5,0,36.7,11.3,44.5,29.6c14.6-17,33.6-29.6,56.3-29.6C941.9,112.9,959.3,139.8,959.3,178.1z"/>
</g>
</svg>
