<?xml version="1.0" encoding="UTF-8" standalone="no"?>
<!DOCTYPE svg PUBLIC "-//W3C//DTD SVG 1.1//EN" "http://www.w3.org/Graphics/SVG/1.1/DTD/svg11.dtd">
<svg width="100%" height="100%" viewBox="0 0 362 89" version="1.1" xmlns="http://www.w3.org/2000/svg" xmlns:xlink="http://www.w3.org/1999/xlink" xml:space="preserve" xmlns:serif="http://www.serif.com/" style="fill-rule:evenodd;clip-rule:evenodd;stroke-linejoin:round;stroke-miterlimit:1.41421;">
    <g id="Artboard1" transform="matrix(1.0033,0,0,1.01677,-450.564,-55.6954)">
        <rect x="449.082" y="54.777" width="360.376" height="86.556" style="fill:none;"/>
        <g transform="matrix(1,0,0,1,-2.2972,0)">
            <g transform="matrix(0.996711,0,0,0.98351,585.035,48.9297)">
                <path d="M86.389,14.76C86.389,14.362 86.231,13.98 85.95,13.698L79.41,7.161C78.824,6.576 77.875,6.576 77.289,7.162L68.921,15.529L68.169,14.777C67.887,14.496 67.506,14.338 67.107,14.338C66.71,14.338 66.328,14.496 66.046,14.777L28.445,52.382C27.859,52.967 27.859,53.917 28.445,54.503L29.196,55.254L23.465,60.987C22.88,61.573 22.88,62.522 23.465,63.108L30,69.646C30.293,69.939 30.677,70.085 31.061,70.085C31.445,70.085 31.829,69.939 32.122,69.647L37.855,63.917L38.612,64.675C38.894,64.956 39.275,65.114 39.673,65.114C40.071,65.114 40.452,64.956 40.734,64.675L63.629,41.78C64.41,42.297 65.29,42.676 66.238,42.87C73.04,52.454 72.188,65.837 63.605,74.418C63.019,75.003 63.019,75.953 63.605,76.539C63.898,76.832 64.283,76.978 64.666,76.978C65.051,76.978 65.434,76.832 65.727,76.539C74.885,67.384 76.22,53.341 69.771,42.734C71.694,42.19 73.305,40.898 74.263,39.189C77.651,44.477 79.491,50.616 79.491,57.047C79.491,65.929 76.033,74.279 69.753,80.559C57.403,92.913 37.455,93.577 24.338,82.07C23.994,81.768 22.534,80.397 21.193,78.919L29.395,78.919C30.224,78.919 30.895,78.247 30.895,77.419C30.895,76.591 30.224,75.919 29.395,75.919L15.111,75.919C14.282,75.919 13.611,76.591 13.611,77.419C13.611,78.247 14.282,78.919 15.111,78.919L17.294,78.919C18.933,81.136 21.691,83.739 22.358,84.325C29.185,90.313 37.706,93.278 46.215,93.278L80.345,93.278C81.173,93.278 81.845,92.606 81.845,91.778C81.845,90.95 81.173,90.278 80.345,90.278L60.687,90.278C64.759,88.516 68.569,85.987 71.874,82.68C78.721,75.834 82.49,66.73 82.49,57.047C82.49,49.078 79.924,41.508 75.201,35.26C75.148,33.852 74.697,32.545 73.968,31.44L78.338,27.071C78.924,26.485 78.924,25.536 78.338,24.95L77.579,24.19L85.949,15.821C86.23,15.539 86.389,15.157 86.389,14.76ZM31.062,66.464L26.647,62.048L31.312,57.381L35.729,61.799L31.062,66.464ZM67.74,40.021C65.271,40.021 63.263,38.013 63.263,35.546C63.263,33.077 65.271,31.069 67.74,31.069C70.208,31.069 72.217,33.077 72.217,35.546C72.217,38.014 70.208,40.021 67.74,40.021ZM71.854,29.312C70.674,28.529 69.26,28.071 67.741,28.071C63.618,28.071 60.264,31.425 60.264,35.548C60.264,37.068 60.725,38.48 61.506,39.66L39.673,61.492L31.626,53.442L67.107,17.959L75.156,26.01L71.854,29.312ZM75.458,22.068L71.042,17.65L78.35,10.343L82.768,14.759L75.458,22.068Z" style="fill-opacity:0.9;fill-rule:nonzero;"/>
            </g>
            <g transform="matrix(3.98865,0,0,3.93582,-211.579,-6.52255)">
                <path d="M167.448,25.556C167.24,25.556 167.09,25.506 166.998,25.406C166.906,25.306 166.86,25.176 166.86,25.016L166.86,24.86C166.86,24.7 166.906,24.57 166.998,24.47C167.09,24.37 167.24,24.32 167.448,24.32C167.656,24.32 167.806,24.37 167.898,24.47C167.99,24.57 168.036,24.7 168.036,24.86L168.036,25.016C168.036,25.176 167.99,25.306 167.898,25.406C167.806,25.506 167.656,25.556 167.448,25.556ZM166.968,27.008L167.928,27.008L167.928,33.2L166.968,33.2L166.968,27.008Z" style="fill-opacity:0.9;fill-rule:nonzero;"/>
                <path d="M169.968,33.2L169.968,27.008L170.928,27.008L170.928,28.016L170.976,28.016C171.128,27.664 171.342,27.384 171.618,27.176C171.894,26.968 172.264,26.864 172.728,26.864C173.368,26.864 173.874,27.07 174.246,27.482C174.618,27.894 174.804,28.476 174.804,29.228L174.804,33.2L173.844,33.2L173.844,29.396C173.844,28.284 173.376,27.728 172.44,27.728C172.248,27.728 172.062,27.752 171.882,27.8C171.702,27.848 171.54,27.92 171.396,28.016C171.252,28.112 171.138,28.234 171.054,28.382C170.97,28.53 170.928,28.704 170.928,28.904L170.928,33.2L169.968,33.2Z" style="fill-opacity:0.9;fill-rule:nonzero;"/>
                <path d="M177.12,27.848L176.112,27.848L176.112,27.008L177.12,27.008L177.12,25.76C177.12,25.328 177.232,24.98 177.456,24.716C177.68,24.452 178.02,24.32 178.476,24.32L179.412,24.32L179.412,25.16L178.08,25.16L178.08,27.008L179.412,27.008L179.412,27.848L178.08,27.848L178.08,33.2L177.12,33.2L177.12,27.848Z" style="fill-opacity:0.9;fill-rule:nonzero;"/>
                <path d="M182.964,33.344C182.548,33.344 182.168,33.268 181.824,33.116C181.48,32.964 181.186,32.746 180.942,32.462C180.698,32.178 180.508,31.838 180.372,31.442C180.236,31.046 180.168,30.6 180.168,30.104C180.168,29.616 180.236,29.172 180.372,28.772C180.508,28.372 180.698,28.03 180.942,27.746C181.186,27.462 181.48,27.244 181.824,27.092C182.168,26.94 182.548,26.864 182.964,26.864C183.38,26.864 183.758,26.94 184.098,27.092C184.438,27.244 184.732,27.462 184.98,27.746C185.228,28.03 185.42,28.372 185.556,28.772C185.692,29.172 185.76,29.616 185.76,30.104C185.76,30.6 185.692,31.046 185.556,31.442C185.42,31.838 185.228,32.178 184.98,32.462C184.732,32.746 184.438,32.964 184.098,33.116C183.758,33.268 183.38,33.344 182.964,33.344ZM182.964,32.492C183.484,32.492 183.908,32.332 184.236,32.012C184.564,31.692 184.728,31.204 184.728,30.548L184.728,29.66C184.728,29.004 184.564,28.516 184.236,28.196C183.908,27.876 183.484,27.716 182.964,27.716C182.444,27.716 182.02,27.876 181.692,28.196C181.364,28.516 181.2,29.004 181.2,29.66L181.2,30.548C181.2,31.204 181.364,31.692 181.692,32.012C182.02,32.332 182.444,32.492 182.964,32.492Z" style="fill-opacity:0.9;fill-rule:nonzero;"/>
                <path d="M187.344,33.2L187.344,27.008L188.304,27.008L188.304,28.148L188.364,28.148C188.476,27.852 188.676,27.588 188.964,27.356C189.252,27.124 189.648,27.008 190.152,27.008L190.524,27.008L190.524,27.968L189.96,27.968C189.44,27.968 189.034,28.066 188.742,28.262C188.45,28.458 188.304,28.704 188.304,29L188.304,33.2L187.344,33.2Z" style="fill-opacity:0.9;fill-rule:nonzero;"/>
                <path d="M191.748,33.2L191.748,27.008L192.708,27.008L192.708,28.016L192.756,28.016C192.828,27.856 192.91,27.706 193.002,27.566C193.094,27.426 193.206,27.304 193.338,27.2C193.47,27.096 193.624,27.014 193.8,26.954C193.976,26.894 194.184,26.864 194.424,26.864C194.832,26.864 195.208,26.962 195.552,27.158C195.896,27.354 196.152,27.676 196.32,28.124L196.344,28.124C196.456,27.788 196.666,27.494 196.974,27.242C197.282,26.99 197.7,26.864 198.228,26.864C198.86,26.864 199.354,27.07 199.71,27.482C200.066,27.894 200.244,28.476 200.244,29.228L200.244,33.2L199.284,33.2L199.284,29.396C199.284,28.844 199.176,28.428 198.96,28.148C198.744,27.868 198.4,27.728 197.928,27.728C197.736,27.728 197.554,27.752 197.382,27.8C197.21,27.848 197.056,27.92 196.92,28.016C196.784,28.112 196.676,28.234 196.596,28.382C196.516,28.53 196.476,28.704 196.476,28.904L196.476,33.2L195.516,33.2L195.516,29.396C195.516,28.844 195.408,28.428 195.192,28.148C194.976,27.868 194.64,27.728 194.184,27.728C193.992,27.728 193.808,27.752 193.632,27.8C193.456,27.848 193.3,27.92 193.164,28.016C193.028,28.112 192.918,28.234 192.834,28.382C192.75,28.53 192.708,28.704 192.708,28.904L192.708,33.2L191.748,33.2Z" style="fill-opacity:0.9;fill-rule:nonzero;"/>
            </g>
            <g transform="matrix(3.98865,0,0,3.93582,18.7011,-6.52255)">
                <path d="M168.804,33.344C168.268,33.344 167.81,33.244 167.43,33.044C167.05,32.844 166.72,32.552 166.44,32.168L166.944,31.772C167.2,32.108 167.48,32.356 167.784,32.516C168.088,32.676 168.444,32.756 168.852,32.756C169.324,32.756 169.688,32.656 169.944,32.456C170.2,32.256 170.328,31.968 170.328,31.592C170.328,31.264 170.23,31.006 170.034,30.818C169.838,30.63 169.516,30.504 169.068,30.44L168.564,30.356C168.284,30.316 168.028,30.256 167.796,30.176C167.564,30.096 167.366,29.988 167.202,29.852C167.038,29.716 166.91,29.55 166.818,29.354C166.726,29.158 166.68,28.92 166.68,28.64C166.68,28.352 166.734,28.1 166.842,27.884C166.95,27.668 167.096,27.488 167.28,27.344C167.464,27.2 167.684,27.092 167.94,27.02C168.196,26.948 168.472,26.912 168.768,26.912C169.28,26.912 169.7,27 170.028,27.176C170.356,27.352 170.636,27.58 170.868,27.86L170.412,28.28C170.252,28.088 170.038,27.91 169.77,27.746C169.502,27.582 169.156,27.5 168.732,27.5C168.292,27.5 167.95,27.596 167.706,27.788C167.462,27.98 167.34,28.252 167.34,28.604C167.34,28.964 167.45,29.224 167.67,29.384C167.89,29.544 168.22,29.66 168.66,29.732L169.152,29.804C169.776,29.9 170.238,30.086 170.538,30.362C170.838,30.638 170.988,31.024 170.988,31.52C170.988,32.096 170.794,32.544 170.406,32.864C170.018,33.184 169.484,33.344 168.804,33.344Z" style="fill-opacity:0.9;fill-rule:nonzero;"/>
                <path d="M173.796,33.2C173.548,33.2 173.36,33.132 173.232,32.996C173.104,32.86 173.04,32.676 173.04,32.444L173.04,27.656L171.972,27.656L171.972,27.056L172.668,27.056C172.836,27.056 172.95,27.022 173.01,26.954C173.07,26.886 173.1,26.764 173.1,26.588L173.1,25.34L173.724,25.34L173.724,27.056L175.116,27.056L175.116,27.656L173.724,27.656L173.724,32.6L175.02,32.6L175.02,33.2L173.796,33.2Z" style="fill-opacity:0.9;fill-rule:nonzero;"/>
                <path d="M180.6,32.228L180.552,32.228C180.496,32.372 180.42,32.512 180.324,32.648C180.228,32.784 180.108,32.902 179.964,33.002C179.82,33.102 179.65,33.184 179.454,33.248C179.258,33.312 179.028,33.344 178.764,33.344C178.108,33.344 177.596,33.142 177.228,32.738C176.86,32.334 176.676,31.756 176.676,31.004L176.676,27.056L177.36,27.056L177.36,30.872C177.36,31.504 177.496,31.972 177.768,32.276C178.04,32.58 178.432,32.732 178.944,32.732C179.16,32.732 179.366,32.704 179.562,32.648C179.758,32.592 179.934,32.508 180.09,32.396C180.246,32.284 180.37,32.142 180.462,31.97C180.554,31.798 180.6,31.596 180.6,31.364L180.6,27.056L181.284,27.056L181.284,33.2L180.6,33.2L180.6,32.228Z" style="fill-opacity:0.9;fill-rule:nonzero;"/>
                <path d="M187.488,32.216L187.452,32.216C187.292,32.56 187.058,32.834 186.75,33.038C186.442,33.242 186.052,33.344 185.58,33.344C184.788,33.344 184.168,33.064 183.72,32.504C183.272,31.944 183.048,31.152 183.048,30.128C183.048,29.104 183.272,28.312 183.72,27.752C184.168,27.192 184.788,26.912 185.58,26.912C186.052,26.912 186.444,27.014 186.756,27.218C187.068,27.422 187.3,27.696 187.452,28.04L187.488,28.04L187.488,24.32L188.172,24.32L188.172,33.2L187.488,33.2L187.488,32.216ZM185.736,32.732C185.976,32.732 186.202,32.7 186.414,32.636C186.626,32.572 186.812,32.478 186.972,32.354C187.132,32.23 187.258,32.082 187.35,31.91C187.442,31.738 187.488,31.544 187.488,31.328L187.488,28.892C187.488,28.692 187.442,28.508 187.35,28.34C187.258,28.172 187.132,28.028 186.972,27.908C186.812,27.788 186.626,27.694 186.414,27.626C186.202,27.558 185.976,27.524 185.736,27.524C185.12,27.524 184.64,27.72 184.296,28.112C183.952,28.504 183.78,29.032 183.78,29.696L183.78,30.56C183.78,31.224 183.952,31.752 184.296,32.144C184.64,32.536 185.12,32.732 185.736,32.732Z" style="fill-opacity:0.9;fill-rule:nonzero;"/>
                <path d="M190.74,25.388C190.58,25.388 190.462,25.348 190.386,25.268C190.31,25.188 190.272,25.084 190.272,24.956L190.272,24.836C190.272,24.708 190.31,24.604 190.386,24.524C190.462,24.444 190.58,24.404 190.74,24.404C190.9,24.404 191.018,24.444 191.094,24.524C191.17,24.604 191.208,24.708 191.208,24.836L191.208,24.956C191.208,25.084 191.17,25.188 191.094,25.268C191.018,25.348 190.9,25.388 190.74,25.388ZM190.404,27.056L191.088,27.056L191.088,33.2L190.404,33.2L190.404,27.056Z" style="fill-opacity:0.9;fill-rule:nonzero;"/>
                <path d="M195.504,33.344C195.096,33.344 194.728,33.272 194.4,33.128C194.072,32.984 193.792,32.774 193.56,32.498C193.328,32.222 193.148,31.884 193.02,31.484C192.892,31.084 192.828,30.632 192.828,30.128C192.828,29.624 192.892,29.174 193.02,28.778C193.148,28.382 193.328,28.046 193.56,27.77C193.792,27.494 194.072,27.282 194.4,27.134C194.728,26.986 195.096,26.912 195.504,26.912C195.912,26.912 196.28,26.986 196.608,27.134C196.936,27.282 197.216,27.494 197.448,27.77C197.68,28.046 197.86,28.382 197.988,28.778C198.116,29.174 198.18,29.624 198.18,30.128C198.18,30.632 198.116,31.084 197.988,31.484C197.86,31.884 197.68,32.222 197.448,32.498C197.216,32.774 196.936,32.984 196.608,33.128C196.28,33.272 195.912,33.344 195.504,33.344ZM195.504,32.732C196.104,32.732 196.578,32.544 196.926,32.168C197.274,31.792 197.448,31.24 197.448,30.512L197.448,29.744C197.448,29.024 197.274,28.474 196.926,28.094C196.578,27.714 196.104,27.524 195.504,27.524C194.904,27.524 194.43,27.712 194.082,28.088C193.734,28.464 193.56,29.016 193.56,29.744L193.56,30.512C193.56,31.232 193.734,31.782 194.082,32.162C194.43,32.542 194.904,32.732 195.504,32.732Z" style="fill-opacity:0.9;fill-rule:nonzero;"/>
            </g>
        </g>
    </g>
</svg>
