<?xml version="1.0" encoding="UTF-8" standalone="no"?>
<!DOCTYPE svg PUBLIC "-//W3C//DTD SVG 1.1//EN" "http://www.w3.org/Graphics/SVG/1.1/DTD/svg11.dtd">
<svg width="100%" height="100%" viewBox="0 0 362 89" version="1.1" xmlns="http://www.w3.org/2000/svg" xmlns:xlink="http://www.w3.org/1999/xlink" xml:space="preserve" xmlns:serif="http://www.serif.com/" style="fill-rule:evenodd;clip-rule:evenodd;stroke-linejoin:round;stroke-miterlimit:1.41421;">
    <g id="Artboard1" transform="matrix(1.0033,0,0,1.01677,-450.564,-55.6954)">
        <rect x="449.082" y="54.777" width="360.376" height="86.556" style="fill:none;"/>
        <g transform="matrix(0.996711,0,0,0.98351,585.035,48.9297)">
            <path d="M86.389,14.76C86.389,14.362 86.231,13.98 85.95,13.698L79.41,7.161C78.824,6.576 77.875,6.576 77.289,7.162L68.921,15.529L68.169,14.777C67.887,14.496 67.506,14.338 67.107,14.338C66.71,14.338 66.328,14.496 66.046,14.777L28.445,52.382C27.859,52.967 27.859,53.917 28.445,54.503L29.196,55.254L23.465,60.987C22.88,61.573 22.88,62.522 23.465,63.108L30,69.646C30.293,69.939 30.677,70.085 31.061,70.085C31.445,70.085 31.829,69.939 32.122,69.647L37.855,63.917L38.612,64.675C38.894,64.956 39.275,65.114 39.673,65.114C40.071,65.114 40.452,64.956 40.734,64.675L63.629,41.78C64.41,42.297 65.29,42.676 66.238,42.87C73.04,52.454 72.188,65.837 63.605,74.418C63.019,75.003 63.019,75.953 63.605,76.539C63.898,76.832 64.283,76.978 64.666,76.978C65.051,76.978 65.434,76.832 65.727,76.539C74.885,67.384 76.22,53.341 69.771,42.734C71.694,42.19 73.305,40.898 74.263,39.189C77.651,44.477 79.491,50.616 79.491,57.047C79.491,65.929 76.033,74.279 69.753,80.559C57.403,92.913 37.455,93.577 24.338,82.07C23.994,81.768 22.534,80.397 21.193,78.919L29.395,78.919C30.224,78.919 30.895,78.247 30.895,77.419C30.895,76.591 30.224,75.919 29.395,75.919L15.111,75.919C14.282,75.919 13.611,76.591 13.611,77.419C13.611,78.247 14.282,78.919 15.111,78.919L17.294,78.919C18.933,81.136 21.691,83.739 22.358,84.325C29.185,90.313 37.706,93.278 46.215,93.278L80.345,93.278C81.173,93.278 81.845,92.606 81.845,91.778C81.845,90.95 81.173,90.278 80.345,90.278L60.687,90.278C64.759,88.516 68.569,85.987 71.874,82.68C78.721,75.834 82.49,66.73 82.49,57.047C82.49,49.078 79.924,41.508 75.201,35.26C75.148,33.852 74.697,32.545 73.968,31.44L78.338,27.071C78.924,26.485 78.924,25.536 78.338,24.95L77.579,24.19L85.949,15.821C86.23,15.539 86.389,15.157 86.389,14.76ZM31.062,66.464L26.647,62.048L31.312,57.381L35.729,61.799L31.062,66.464ZM67.74,40.021C65.271,40.021 63.263,38.013 63.263,35.546C63.263,33.077 65.271,31.069 67.74,31.069C70.208,31.069 72.217,33.077 72.217,35.546C72.217,38.014 70.208,40.021 67.74,40.021ZM71.854,29.312C70.674,28.529 69.26,28.071 67.741,28.071C63.618,28.071 60.264,31.425 60.264,35.548C60.264,37.068 60.725,38.48 61.506,39.66L39.673,61.492L31.626,53.442L67.107,17.959L75.156,26.01L71.854,29.312ZM75.458,22.068L71.042,17.65L78.35,10.343L82.768,14.759L75.458,22.068Z" style="fill-opacity:0.9;fill-rule:nonzero;"/>
        </g>
        <g transform="matrix(3.98865,0,0,3.93582,-215.566,-6.52255)">
            <text x="165.948px" y="33.2px" style="font-family:'IBMPlexSans', 'IBM Plex Sans', sans-serif;font-size:12px;fill-opacity:0.9;">inform</text>
        </g>
        <g transform="matrix(3.98865,0,0,3.93582,18.7011,-6.52255)">
            <text x="165.948px" y="33.2px" style="font-family:'IBMPlexSans-Light', 'IBM Plex Sans Light', sans-serif;font-weight:300;font-size:12px;fill-opacity:0.9;">studio</text>
        </g>
    </g>
</svg>
