<svg viewBox="0 0 1000 1580" xmlns="http://www.w3.org/2000/svg" fill-rule="evenodd" clip-rule="evenodd" stroke-linecap="round" stroke-linejoin="round" stroke-miterlimit="1.5" style=""><path d="M231.566 602.703c-8.409-1.392-14.947-11.695-14.947-24.181 0-13.434 7.569-24.341 16.892-24.341s16.892 10.907 16.892 24.341c0 12.437-6.487 22.708-14.848 24.164" fill="none" stroke="#1c9cfd" stroke-width="1.29" transform="matrix(2.07818 -.6453 .72703 2.34139 -672.982 -636.582)" class="KbPIWuoN_0"></path><path d="M259.814 625.31l-7.63-.923 1.717-7.037" fill="none" stroke="#1c9cfd" stroke-width="3.0007074" class="KbPIWuoN_1"></path><path d="M230.276 602.416c-7.778-2.177-13.657-12.054-13.657-23.894 0-13.434 7.569-24.341 16.892-24.341s16.892 10.907 16.892 24.341c0 11.908-5.948 21.831-13.792 23.931" fill="none" stroke="#1c9cfd" stroke-width="1.76" transform="matrix(1.52411 -.47325 .53319 1.71714 -403.626 -159.357)" class="KbPIWuoN_2"></path><path d="M284.813 764.102l-7.68.292.584-7.22" fill="none" stroke="#1c9cfd" stroke-width="3.0007074" class="KbPIWuoN_3"></path><path d="M534.506 700.316c13.111.739 20.852 1.649 20.852 2.632 0 2.468-48.701 4.471-108.688 4.471-59.986 0-108.687-2.003-108.687-4.471 0-.976 7.624-1.879 20.554-2.615" fill="none" stroke="#1c9cfd" stroke-width="1.83" transform="matrix(1.26611 -.45438 .6402 1.7839 -539.818 -318.535)" class="KbPIWuoN_4"></path><path d="M493.872 1036.47l7.589-14.21 12.452 8.69" fill="none" stroke="#1c9cfd" stroke-width="5.97" transform="matrix(.12537 .46844 -.5021 .13437 815.642 393.772)" class="KbPIWuoN_5"></path><path d="M874.296 947.259L529.494 1172.85l-28.033-150.07" fill="none" stroke="#1c9cfd" stroke-width="4" class="KbPIWuoN_6"></path><path d="M492.872 1034.47l7.589-14.21 12.452 8.69" fill="none" stroke="#1c9cfd" stroke-width="4" class="KbPIWuoN_7"></path><style data-made-with="vivus-instant">.KbPIWuoN_0{stroke-dasharray:127 129;stroke-dashoffset:128;animation:KbPIWuoN_draw_0 3800ms ease 0ms infinite,KbPIWuoN_fade 3800ms linear 0ms infinite;}.KbPIWuoN_1{stroke-dasharray:15 17;stroke-dashoffset:16;animation:KbPIWuoN_draw_1 3800ms ease 0ms infinite,KbPIWuoN_fade 3800ms linear 0ms infinite;}.KbPIWuoN_2{stroke-dasharray:125 127;stroke-dashoffset:126;animation:KbPIWuoN_draw_2 3800ms ease 0ms infinite,KbPIWuoN_fade 3800ms linear 0ms infinite;}.KbPIWuoN_3{stroke-dasharray:15 17;stroke-dashoffset:16;animation:KbPIWuoN_draw_3 3800ms ease 0ms infinite,KbPIWuoN_fade 3800ms linear 0ms infinite;}.KbPIWuoN_4{stroke-dasharray:261 263;stroke-dashoffset:262;animation:KbPIWuoN_draw_4 3800ms ease 0ms infinite,KbPIWuoN_fade 3800ms linear 0ms infinite;}.KbPIWuoN_5{stroke-dasharray:32 34;stroke-dashoffset:33;animation:KbPIWuoN_draw_5 3800ms ease 0ms infinite,KbPIWuoN_fade 3800ms linear 0ms infinite;}.KbPIWuoN_6{stroke-dasharray:565 567;stroke-dashoffset:566;animation:KbPIWuoN_draw_6 3800ms ease 0ms infinite,KbPIWuoN_fade 3800ms linear 0ms infinite;}.KbPIWuoN_7{stroke-dasharray:32 34;stroke-dashoffset:33;animation:KbPIWuoN_draw_7 3800ms ease 0ms infinite,KbPIWuoN_fade 3800ms linear 0ms infinite;}@keyframes KbPIWuoN_draw{100%{stroke-dashoffset:0;}}@keyframes KbPIWuoN_fade{0%{stroke-opacity:1;}89.47368421052632%{stroke-opacity:1;}100%{stroke-opacity:0;}}@keyframes KbPIWuoN_draw_0{0%{stroke-dashoffset: 128}26.31578947368421%{ stroke-dashoffset: 0;}100%{ stroke-dashoffset: 0;}}@keyframes KbPIWuoN_draw_1{7.518796992481203%{stroke-dashoffset: 16}33.83458646616542%{ stroke-dashoffset: 0;}100%{ stroke-dashoffset: 0;}}@keyframes KbPIWuoN_draw_2{15.037593984962406%{stroke-dashoffset: 126}41.35338345864662%{ stroke-dashoffset: 0;}100%{ stroke-dashoffset: 0;}}@keyframes KbPIWuoN_draw_3{22.55639097744361%{stroke-dashoffset: 16}48.87218045112782%{ stroke-dashoffset: 0;}100%{ stroke-dashoffset: 0;}}@keyframes KbPIWuoN_draw_4{30.075187969924812%{stroke-dashoffset: 262}56.390977443609025%{ stroke-dashoffset: 0;}100%{ stroke-dashoffset: 0;}}@keyframes KbPIWuoN_draw_5{37.59398496240602%{stroke-dashoffset: 33}63.90977443609023%{ stroke-dashoffset: 0;}100%{ stroke-dashoffset: 0;}}@keyframes KbPIWuoN_draw_6{45.11278195488722%{stroke-dashoffset: 566}71.42857142857143%{ stroke-dashoffset: 0;}100%{ stroke-dashoffset: 0;}}@keyframes KbPIWuoN_draw_7{52.63157894736842%{stroke-dashoffset: 33}78.94736842105263%{ stroke-dashoffset: 0;}100%{ stroke-dashoffset: 0;}}</style></svg>