<svg viewBox="0 0 1000 1580" xmlns="http://www.w3.org/2000/svg" fill-rule="evenodd" clip-rule="evenodd" stroke-linecap="round" stroke-linejoin="round" stroke-miterlimit="1.5" style=""><path d="M231.566 602.703c-8.409-1.392-14.947-11.695-14.947-24.181 0-13.434 7.569-24.341 16.892-24.341s16.892 10.907 16.892 24.341c0 12.437-6.487 22.708-14.848 24.164" fill="none" stroke="#fff" stroke-opacity=".502" stroke-width="3.45" transform="matrix(2.07818 -.6453 .72703 2.34139 -672.982 -636.582)" class="DDjFOfFb_0"></path><path d="M230.276 602.416c-7.778-2.177-13.657-12.054-13.657-23.894 0-13.434 7.569-24.341 16.892-24.341s16.892 10.907 16.892 24.341c0 11.908-5.948 21.831-13.792 23.931" fill="none" stroke="#fff" stroke-opacity=".502" stroke-width="4.71" transform="matrix(1.52411 -.47325 .53319 1.71714 -403.626 -159.357)" class="DDjFOfFb_1"></path><path d="M534.506 700.316c13.111.739 20.852 1.649 20.852 2.632 0 2.468-48.701 4.471-108.688 4.471-59.986 0-108.687-2.003-108.687-4.471 0-.976 7.624-1.879 20.554-2.615" fill="none" stroke="#fff" stroke-opacity=".502" stroke-width="4.87" transform="matrix(1.26611 -.45438 .6402 1.7839 -539.818 -318.535)" class="DDjFOfFb_2"></path><path d="M874.296 947.259L529.494 1172.85l-28.033-150.07" fill="none" stroke="#fff" stroke-opacity=".502" stroke-width="8" class="DDjFOfFb_3"></path><style data-made-with="vivus-instant">.DDjFOfFb_0{stroke-dasharray:127 129;stroke-dashoffset:128;animation:DDjFOfFb_draw_0 3800ms ease 0ms infinite,DDjFOfFb_fade 3800ms linear 0ms infinite;}.DDjFOfFb_1{stroke-dasharray:125 127;stroke-dashoffset:126;animation:DDjFOfFb_draw_1 3800ms ease 0ms infinite,DDjFOfFb_fade 3800ms linear 0ms infinite;}.DDjFOfFb_2{stroke-dasharray:261 263;stroke-dashoffset:262;animation:DDjFOfFb_draw_2 3800ms ease 0ms infinite,DDjFOfFb_fade 3800ms linear 0ms infinite;}.DDjFOfFb_3{stroke-dasharray:565 567;stroke-dashoffset:566;animation:DDjFOfFb_draw_3 3800ms ease 0ms infinite,DDjFOfFb_fade 3800ms linear 0ms infinite;}@keyframes DDjFOfFb_draw{100%{stroke-dashoffset:0;}}@keyframes DDjFOfFb_fade{0%{stroke-opacity:1;}89.47368421052632%{stroke-opacity:1;}100%{stroke-opacity:0;}}@keyframes DDjFOfFb_draw_0{0%{stroke-dashoffset: 128}26.31578947368421%{ stroke-dashoffset: 0;}100%{ stroke-dashoffset: 0;}}@keyframes DDjFOfFb_draw_1{17.543859649122805%{stroke-dashoffset: 126}43.859649122807014%{ stroke-dashoffset: 0;}100%{ stroke-dashoffset: 0;}}@keyframes DDjFOfFb_draw_2{35.08771929824561%{stroke-dashoffset: 262}61.403508771929815%{ stroke-dashoffset: 0;}100%{ stroke-dashoffset: 0;}}@keyframes DDjFOfFb_draw_3{52.63157894736842%{stroke-dashoffset: 566}78.94736842105263%{ stroke-dashoffset: 0;}100%{ stroke-dashoffset: 0;}}</style></svg>